<?xml version="1.0" standalone="no"?>
<!DOCTYPE svg PUBLIC "-//W3C//DTD SVG 20010904//EN"
 "http://www.w3.org/TR/2001/REC-SVG-20010904/DTD/svg10.dtd">
<svg version="1.0" xmlns="http://www.w3.org/2000/svg"
 width="796.000000pt" height="288.000000pt" viewBox="0 0 796.000000 288.000000"
 preserveAspectRatio="xMidYMid meet">

<g transform="translate(0.000000,288.000000) scale(0.100000,-0.100000)"
fill="#000000" stroke="none">
<path d="M1375 2280 c-9 -15 2 -27 32 -35 55 -13 55 -16 -2 -183 -53 -157 -74
-211 -98 -245 -10 -15 -9 -21 7 -33 23 -16 79 -19 106 -4 25 13 15 40 -15 40
-13 0 -26 4 -29 9 -8 12 21 93 37 103 7 4 48 8 92 8 97 0 124 -16 132 -77 5
-35 3 -41 -17 -46 -14 -4 -21 -12 -18 -24 3 -15 15 -19 71 -21 53 -2 68 0 73
13 4 9 -3 22 -15 33 -23 18 -106 240 -122 327 -13 71 -37 121 -65 134 -31 14
-161 15 -169 1z m166 -152 c6 -24 18 -60 26 -80 24 -58 14 -69 -59 -66 l-63 3
1 35 c2 46 49 150 68 150 9 0 20 -16 27 -42z"/>
<path d="M2040 2284 c-8 -1 -54 -6 -102 -9 -49 -4 -88 -11 -88 -15 0 -5 12
-15 28 -22 l27 -13 3 -185 c1 -102 0 -195 -3 -207 -3 -13 -16 -25 -30 -29 -33
-8 -32 -32 3 -45 32 -13 149 -6 164 9 18 18 1 42 -31 42 -37 0 -43 18 -39 110
l3 65 37 3 c32 3 43 -3 77 -37 40 -40 91 -127 91 -155 0 -36 76 -60 100 -32 9
12 7 17 -10 28 -12 7 -31 31 -42 53 -11 22 -36 61 -54 88 -19 26 -34 49 -34
52 0 3 15 11 33 19 18 7 46 28 61 47 25 30 28 39 24 91 -3 44 -10 64 -29 84
-44 49 -123 73 -189 58z m119 -80 c25 -20 31 -34 31 -64 0 -62 -28 -87 -106
-95 -42 -5 -74 -3 -90 4 -22 10 -24 16 -24 84 0 43 5 78 12 85 7 7 40 12 79
12 58 0 72 -4 98 -26z"/>
<path d="M3015 2280 c-9 -15 2 -27 32 -35 55 -13 55 -16 -2 -183 -53 -157 -74
-211 -98 -245 -10 -15 -9 -21 7 -33 23 -16 79 -19 106 -4 25 13 15 40 -15 40
-13 0 -26 4 -29 9 -8 12 21 93 37 103 7 4 48 8 92 8 97 0 124 -16 132 -77 5
-35 3 -41 -17 -46 -14 -4 -21 -12 -18 -24 3 -15 15 -19 71 -21 53 -2 68 0 73
13 4 9 -3 22 -15 33 -23 18 -106 240 -122 327 -13 71 -37 121 -65 134 -31 14
-161 15 -169 1z m166 -152 c6 -24 18 -60 26 -80 24 -58 14 -69 -59 -66 l-63 3
1 35 c2 46 49 150 68 150 9 0 20 -16 27 -42z"/>
<path d="M5230 2284 c-8 -1 -54 -6 -102 -9 -49 -4 -88 -11 -88 -15 0 -5 12
-15 28 -22 l27 -13 3 -185 c1 -102 0 -195 -3 -207 -3 -13 -16 -25 -30 -29 -33
-8 -32 -32 3 -45 32 -13 149 -6 164 9 18 18 1 42 -31 42 -37 0 -43 18 -39 110
l3 65 37 3 c32 3 43 -3 77 -37 40 -40 91 -127 91 -155 0 -36 76 -60 100 -32 9
12 7 17 -10 28 -12 7 -31 31 -42 53 -11 22 -36 61 -54 88 -19 26 -34 49 -34
52 0 3 15 11 33 19 18 7 46 28 61 47 25 30 28 39 24 91 -3 44 -10 64 -29 84
-44 49 -123 73 -189 58z m119 -80 c25 -20 31 -34 31 -64 0 -62 -28 -87 -106
-95 -42 -5 -74 -3 -90 4 -22 10 -24 16 -24 84 0 43 5 78 12 85 7 7 40 12 79
12 58 0 72 -4 98 -26z"/>
<path d="M6295 2280 c-9 -15 2 -27 32 -35 55 -13 55 -16 -2 -183 -53 -157 -74
-211 -98 -245 -10 -15 -9 -21 7 -33 23 -16 79 -19 106 -4 25 13 15 40 -15 40
-13 0 -26 4 -29 9 -8 12 21 93 37 103 7 4 48 8 92 8 97 0 124 -16 132 -77 5
-35 3 -41 -17 -46 -14 -4 -21 -12 -18 -24 3 -15 15 -19 71 -21 53 -2 68 0 73
13 4 9 -3 22 -15 33 -23 18 -106 240 -122 327 -13 71 -37 121 -65 134 -31 14
-161 15 -169 1z m166 -152 c6 -24 18 -60 26 -80 24 -58 14 -69 -59 -66 l-63 3
1 35 c2 46 49 150 68 150 9 0 20 -16 27 -42z"/>
<path d="M7350 2275 c-19 -23 -2 -33 60 -37 l55 -3 3 -185 c1 -102 0 -195 -3
-207 -4 -19 -12 -23 -46 -23 -87 0 -108 -42 -29 -59 65 -14 127 -14 207 0 50
9 63 15 61 27 -2 12 -21 20 -63 27 l-60 10 -3 189 c-3 221 -1 226 79 226 53 0
72 16 44 37 -29 20 -288 19 -305 -2z"/>
<path d="M680 2267 c0 -8 12 -19 26 -26 l27 -12 -5 -189 c-4 -153 -8 -194 -22
-214 -30 -46 -22 -56 43 -56 66 0 85 14 54 39 -37 29 -41 51 -34 181 7 136 13
159 38 139 19 -17 48 -75 62 -125 6 -22 20 -49 30 -58 31 -28 56 -6 100 90 23
49 45 83 51 79 11 -7 14 -262 4 -289 -3 -9 -12 -16 -18 -16 -7 0 -17 -5 -24
-12 -23 -23 5 -33 82 -30 81 4 96 16 55 44 -18 11 -23 28 -30 98 -10 105 -11
223 -3 273 5 28 14 42 36 53 41 21 30 38 -26 42 -58 4 -78 -11 -102 -77 -10
-25 -23 -53 -29 -61 -7 -8 -18 -32 -24 -52 -11 -34 -37 -66 -45 -57 -2 2 -30
56 -61 119 -32 63 -63 118 -69 122 -21 14 -116 9 -116 -5z"/>
<path d="M4111 2265 c-51 -16 -84 -44 -119 -104 -56 -96 -34 -287 41 -358 65
-62 111 -70 229 -41 109 26 141 55 137 124 -2 24 3 49 11 59 24 29 -3 40 -103
40 -79 0 -92 -2 -95 -17 -3 -15 4 -18 40 -18 59 -1 78 -17 78 -69 0 -41 -1
-43 -52 -66 -72 -33 -114 -32 -170 5 -49 32 -80 88 -92 165 -7 40 8 134 22
145 4 3 20 22 35 42 32 43 86 64 139 54 36 -6 76 -39 119 -96 23 -30 28 -33
43 -21 19 16 23 135 4 147 -6 4 -42 8 -80 10 -37 1 -85 5 -106 8 -20 3 -57 -1
-81 -9z"/>
<path d="M5600 2267 c0 -8 12 -19 26 -26 l27 -12 -5 -189 c-4 -153 -8 -194
-22 -214 -30 -46 -22 -56 43 -56 66 0 85 14 54 39 -37 29 -41 51 -34 181 7
136 13 159 38 139 19 -17 48 -75 62 -125 6 -22 20 -49 30 -58 31 -28 56 -6
100 90 23 49 45 83 51 79 11 -7 14 -262 4 -289 -3 -9 -12 -16 -18 -16 -7 0
-17 -5 -24 -12 -23 -23 5 -33 82 -30 81 4 96 16 55 44 -18 11 -23 28 -30 98
-10 105 -11 223 -3 273 5 28 14 42 36 53 41 21 30 38 -26 42 -58 4 -78 -11
-102 -77 -10 -25 -23 -53 -29 -61 -7 -8 -18 -32 -24 -52 -11 -34 -37 -66 -45
-57 -2 2 -30 56 -61 119 -32 63 -63 118 -69 122 -21 14 -116 9 -116 -5z"/>
<path d="M7087 2268 c-19 -15 -12 -30 21 -47 21 -11 22 -16 22 -176 0 -134 -3
-165 -14 -165 -17 0 -31 18 -41 50 -4 14 -20 46 -36 71 -16 25 -29 52 -29 59
0 7 -20 43 -45 80 -25 37 -45 73 -45 79 0 28 -40 51 -89 51 -60 0 -70 -12 -36
-42 l25 -22 0 -188 c0 -189 0 -189 -25 -212 -14 -13 -25 -28 -25 -34 0 -16
112 -21 129 -5 13 10 11 16 -12 37 l-28 26 3 157 c3 133 5 158 18 158 21 0 97
-116 114 -174 8 -27 26 -66 40 -87 13 -22 28 -51 31 -66 9 -37 48 -70 77 -66
l23 3 5 228 c5 235 7 246 48 247 19 0 14 28 -7 40 -27 14 -104 13 -124 -2z"/>
<path d="M2429 2257 c-21 -16 -36 -162 -18 -183 20 -24 39 3 39 55 0 78 45
121 105 101 45 -15 50 -41 41 -234 -7 -164 -17 -196 -62 -196 -21 0 -25 -4
-22 -22 3 -22 7 -23 114 -26 104 -2 112 -1 117 17 6 25 0 31 -33 31 -15 0 -33
6 -39 14 -7 8 -14 85 -18 195 -6 166 -5 183 12 201 21 23 98 28 112 8 4 -7 13
-42 18 -78 9 -56 13 -65 33 -68 20 -3 22 0 22 50 0 90 -10 125 -37 137 -34 16
-363 14 -384 -2z"/>
<path d="M4517 2263 c-14 -13 -6 -33 12 -33 47 0 51 -19 51 -221 l0 -190 -30
-17 c-17 -9 -29 -24 -28 -32 3 -12 31 -15 168 -18 91 -1 175 0 187 3 15 3 26
18 34 43 25 84 -12 124 -46 50 l-20 -43 -85 -3 c-112 -4 -125 5 -124 85 1 71
10 109 26 115 7 3 30 3 50 0 30 -3 39 -10 47 -33 12 -36 34 -37 49 -4 22 49 8
135 -22 135 -8 0 -21 -12 -28 -27 -10 -22 -21 -29 -51 -31 -21 -2 -45 2 -53 9
-18 15 -20 139 -2 157 19 19 173 16 192 -4 9 -8 16 -21 16 -27 0 -7 7 -23 16
-35 12 -17 19 -20 33 -12 16 8 17 16 9 62 -5 29 -17 59 -26 66 -17 13 -362 18
-375 5z"/>
<path d="M5708 1323 c-55 -8 -95 -94 -75 -159 15 -49 74 -88 133 -88 36 0 50
6 79 34 51 49 60 86 36 142 -30 70 -70 87 -173 71z m79 -39 c4 -10 -12 -34
-48 -70 -50 -50 -55 -53 -67 -37 -18 25 -7 63 29 96 32 30 76 36 86 11z"/>
<path d="M5150 1298 c-19 -13 -43 -41 -54 -62 -18 -38 -18 -39 0 -85 15 -35
30 -52 62 -70 42 -23 45 -23 86 -7 49 19 91 59 100 97 7 32 -25 103 -57 123
-12 8 -40 18 -62 21 -32 5 -47 2 -75 -17z m98 -56 c3 -25 -3 -39 -27 -62 -32
-33 -57 -37 -86 -17 -14 11 -16 21 -11 50 8 45 40 69 86 65 32 -3 35 -6 38
-36z"/>
<path d="M7383 1310 c-37 -8 -79 -53 -88 -92 -8 -33 18 -91 53 -118 31 -25 95
-25 136 -1 35 20 62 86 47 116 -5 11 -12 32 -15 46 -4 19 -17 30 -49 43 -23 9
-45 16 -47 15 -3 -1 -19 -4 -37 -9z m92 -45 c35 -34 35 -92 0 -101 -40 -10
-89 25 -93 65 -2 18 -1 39 2 47 9 23 64 17 91 -11z"/>
<path d="M6250 1277 c-37 -19 -46 -29 -58 -67 -12 -40 -12 -50 1 -83 27 -63
106 -99 160 -74 57 27 72 52 72 117 -1 66 -18 93 -72 116 -42 18 -49 17 -103
-9z"/>
<path d="M6769 1260 c-40 -37 -41 -42 -36 -85 5 -49 32 -86 79 -111 47 -24 85
-18 125 21 31 30 37 43 41 90 4 52 3 56 -31 90 -31 31 -41 35 -86 35 -45 0
-55 -4 -92 -40z m152 -19 c31 -31 38 -71 15 -90 -10 -9 -24 1 -65 44 -29 30
-49 60 -46 65 13 21 66 10 96 -19z"/>
<path d="M4544 1176 c-9 -24 4 -48 23 -44 12 2 18 12 18 28 0 29 -32 41 -41
16z"/>
<path d="M3430 1147 c-18 -9 -26 -22 -28 -47 -4 -49 13 -65 93 -93 56 -19 71
-28 73 -46 6 -36 -15 -51 -69 -51 -42 0 -51 4 -71 30 -12 17 -25 30 -30 30
-10 0 -10 -61 0 -75 4 -5 42 -12 84 -14 71 -3 79 -1 102 22 30 30 33 63 10 96
-19 26 -71 51 -107 51 -21 0 -57 27 -57 43 0 18 36 37 71 37 30 0 46 -6 63
-25 31 -33 36 -32 36 9 0 32 -2 34 -46 40 -67 9 -96 7 -124 -7z"/>
<path d="M4330 1151 c0 -5 11 -12 25 -15 21 -5 25 -12 25 -42 0 -31 -3 -35
-17 -28 -10 4 -35 9 -55 12 -30 3 -42 -1 -62 -22 -34 -33 -37 -120 -6 -154 27
-29 66 -38 103 -24 22 8 34 9 44 1 18 -16 49 -3 35 14 -19 23 -31 128 -21 190
5 32 7 62 4 67 -8 13 -75 13 -75 1z m30 -121 c42 -42 11 -130 -46 -130 -32 0
-74 42 -74 73 0 64 77 100 120 57z"/>
<path d="M3717 1143 c-4 -3 -7 -19 -7 -35 0 -16 -6 -31 -15 -34 -19 -8 -20
-24 -1 -24 20 0 26 -23 26 -91 0 -52 3 -60 25 -75 48 -31 148 8 131 51 -5 15
-10 14 -37 -9 -34 -29 -42 -31 -69 -16 -24 13 -37 89 -21 119 9 17 21 21 56
21 45 0 59 12 29 24 -9 3 -31 6 -50 6 -32 0 -34 2 -34 35 0 33 -16 46 -33 28z"/>
<path d="M3940 1081 c0 -5 5 -13 10 -16 6 -3 10 -39 10 -79 0 -58 4 -76 18
-89 21 -19 64 -22 92 -7 14 7 25 7 38 -1 24 -15 61 -4 44 13 -7 7 -12 42 -12
81 0 80 -11 107 -45 107 -30 0 -41 -16 -15 -23 17 -4 20 -14 20 -60 0 -49 -3
-58 -31 -81 -36 -31 -41 -31 -62 -8 -11 12 -17 41 -19 92 -3 69 -5 75 -25 78
-13 2 -23 -1 -23 -7z"/>
<path d="M4490 1081 c0 -5 14 -12 30 -16 30 -7 30 -7 30 -77 0 -68 -1 -70 -30
-81 -16 -6 -30 -15 -30 -19 0 -11 87 -21 126 -14 41 8 41 29 0 34 -23 3 -27 7
-21 25 17 59 17 96 -1 126 -16 27 -24 31 -61 31 -24 0 -43 -4 -43 -9z"/>
<path d="M4783 1079 c-56 -17 -80 -96 -49 -158 29 -56 122 -70 175 -25 28 23
31 32 31 79 0 41 -5 60 -23 80 -25 30 -82 40 -134 24z m107 -41 c26 -28 26
-78 -1 -112 -29 -36 -79 -36 -114 1 -30 33 -31 57 -5 101 17 27 25 32 59 32
28 0 46 -6 61 -22z"/>
</g>
</svg>
